<svg xmlns="http://www.w3.org/2000/svg" xmlns:svg="http://www.w3.org/2000/svg" xmlns:xlink="http://www.w3.org/1999/xlink" id="svg2108" width="12" height="13.837" version="1.1"><metadata id="metadata68"/><defs id="defs3"><linearGradient id="linearGradient4356"><stop id="stop4358" offset="0" stop-color="#000" stop-opacity="1"/><stop id="stop4360" offset="1" stop-color="#000" stop-opacity="0"/></linearGradient><linearGradient id="linearGradient4344"><stop id="stop4346" offset="0" stop-color="#727e0a" stop-opacity="1"/><stop id="stop4348" offset="1" stop-color="#5b6508" stop-opacity="1"/></linearGradient><linearGradient id="linearGradient4338"><stop id="stop4340" offset="0" stop-color="#e9b15e" stop-opacity="1"/><stop id="stop4342" offset="1" stop-color="#966416" stop-opacity="1"/></linearGradient><linearGradient id="linearGradient4163"><stop id="stop4165" offset="0" stop-color="#3b74bc" stop-opacity="1"/><stop id="stop4167" offset="1" stop-color="#2d5990" stop-opacity="1"/></linearGradient><linearGradient id="linearGradient3824"><stop id="stop3826" offset="0" stop-color="#fff" stop-opacity="1"/><stop id="stop3828" offset="1" stop-color="#c9c9c9" stop-opacity="1"/></linearGradient><linearGradient id="linearGradient3816"><stop id="stop3818" offset="0" stop-color="#000" stop-opacity="1"/><stop id="stop3820" offset="1" stop-color="#000" stop-opacity="0"/></linearGradient><linearGradient id="linearGradient3800"><stop id="stop3802" offset="0" stop-color="#f4d9b1" stop-opacity="1"/><stop id="stop3804" offset="1" stop-color="#df9725" stop-opacity="1"/></linearGradient><radialGradient id="radialGradient3806" cx="29.345" cy="17.064" r="9.162" fx="29.345" fy="17.064" gradientUnits="userSpaceOnUse" xlink:href="#linearGradient3800"/><radialGradient id="radialGradient3822" cx="31.113" cy="19.009" r="8.662" fx="31.113" fy="19.009" gradientUnits="userSpaceOnUse" xlink:href="#linearGradient3816"/><linearGradient id="linearGradient3830" x1="30.936" x2="30.936" y1="29.553" y2="35.803" gradientUnits="userSpaceOnUse" xlink:href="#linearGradient3824"/><radialGradient id="radialGradient4169" cx="28.09" cy="27.203" r="13.565" fx="28.09" fy="27.203" gradientTransform="matrix(1.297564,0,0,0.884831,-8.358505,4.940469)" gradientUnits="userSpaceOnUse" xlink:href="#linearGradient4163"/><radialGradient id="radialGradient4171" cx="29.345" cy="17.064" r="9.162" fx="29.345" fy="17.064" gradientTransform="matrix(0.787998,0,0,0.787998,6.221198,3.617627)" gradientUnits="userSpaceOnUse" xlink:href="#linearGradient3800"/><linearGradient id="linearGradient4175" x1="30.936" x2="30.936" y1="29.553" y2="35.803" gradientTransform="translate(0.707108,0)" gradientUnits="userSpaceOnUse" xlink:href="#linearGradient3824"/><radialGradient id="radialGradient4179" cx="31.113" cy="19.009" r="8.662" fx="31.113" fy="19.009" gradientUnits="userSpaceOnUse" xlink:href="#linearGradient3816"/><linearGradient id="linearGradient4326" x1="30.936" x2="30.936" y1="29.553" y2="35.803" gradientTransform="translate(-12.41789,-7)" gradientUnits="userSpaceOnUse" xlink:href="#linearGradient3824"/><radialGradient id="radialGradient4328" cx="29.345" cy="17.064" r="9.162" fx="29.345" fy="17.064" gradientTransform="matrix(0.787998,0,0,0.787998,6.221198,3.617627)" gradientUnits="userSpaceOnUse" xlink:href="#linearGradient4338"/><radialGradient id="radialGradient4330" cx="31.113" cy="19.009" r="8.662" fx="31.113" fy="19.009" gradientUnits="userSpaceOnUse" xlink:href="#linearGradient3816"/><linearGradient id="linearGradient4332" x1="30.936" x2="30.936" y1="29.553" y2="35.803" gradientTransform="translate(-13.125,-7)" gradientUnits="userSpaceOnUse" xlink:href="#linearGradient3824"/><radialGradient id="radialGradient4336" cx="31.113" cy="19.009" r="8.662" fx="31.113" fy="19.009" gradientUnits="userSpaceOnUse" xlink:href="#linearGradient3816"/><radialGradient id="radialGradient4350" cx="16.215" cy="19.836" r="13.565" fx="16.215" fy="19.836" gradientTransform="matrix(1,0,0,0.681917,0,8.233773)" gradientUnits="userSpaceOnUse" xlink:href="#linearGradient4344"/><linearGradient id="linearGradient4362" x1="20.662" x2="22.627" y1="35.818" y2="36.218" gradientTransform="matrix(0.983375,0.181588,-0.181588,0.983375,6.231716,-2.651466)" gradientUnits="userSpaceOnUse" xlink:href="#linearGradient4356"/><linearGradient id="linearGradient4366" x1="22.687" x2="21.408" y1="36.39" y2="35.74" gradientTransform="matrix(-0.977685,0.210075,0.210075,0.977685,55.1096,-3.945209)" gradientUnits="userSpaceOnUse" xlink:href="#linearGradient4356"/><linearGradient id="linearGradient4372" x1="20.662" x2="22.627" y1="35.818" y2="36.218" gradientTransform="matrix(0.983375,0.181588,-0.181588,0.983375,-7.07212,-9.82492)" gradientUnits="userSpaceOnUse" xlink:href="#linearGradient4356"/><linearGradient id="linearGradient4374" x1="22.687" x2="21.408" y1="36.39" y2="35.74" gradientTransform="matrix(-0.977685,0.210075,0.210075,0.977685,41.80576,-11.11866)" gradientUnits="userSpaceOnUse" xlink:href="#linearGradient4356"/><linearGradient id="linearGradient1366" x1="22.687" x2="21.408" y1="36.39" y2="35.74" gradientTransform="matrix(-0.977685,0.210075,0.210075,0.977685,41.80576,-11.11866)" gradientUnits="userSpaceOnUse" xlink:href="#linearGradient4356"/><linearGradient id="linearGradient1369" x1="20.662" x2="22.627" y1="35.818" y2="36.218" gradientTransform="matrix(0.983375,0.181588,-0.181588,0.983375,-7.07212,-9.82492)" gradientUnits="userSpaceOnUse" xlink:href="#linearGradient4356"/><linearGradient id="linearGradient1372" x1="30.936" x2="30.936" y1="29.553" y2="35.803" gradientTransform="translate(-12.41789,-7)" gradientUnits="userSpaceOnUse" xlink:href="#linearGradient3824"/><radialGradient id="radialGradient1381" cx="16.215" cy="19.836" r="13.565" fx="16.215" fy="19.836" gradientTransform="matrix(1,0,0,0.681917,0,8.233773)" gradientUnits="userSpaceOnUse" xlink:href="#linearGradient4344"/><radialGradient id="radialGradient2243" cx="31.113" cy="19.009" r="8.662" fx="31.113" fy="19.009" gradientUnits="userSpaceOnUse" xlink:href="#linearGradient3816"/><radialGradient id="radialGradient2245" cx="28.09" cy="27.203" r="13.565" fx="28.09" fy="27.203" gradientTransform="matrix(1.297564,0,0,0.884831,-8.358505,4.940469)" gradientUnits="userSpaceOnUse" xlink:href="#linearGradient4163"/><linearGradient id="linearGradient2247" x1="30.936" x2="30.936" y1="29.553" y2="35.803" gradientUnits="userSpaceOnUse" xlink:href="#linearGradient3824"/><radialGradient id="radialGradient2249" cx="31.113" cy="19.009" r="8.662" fx="31.113" fy="19.009" gradientUnits="userSpaceOnUse" xlink:href="#linearGradient3816"/><radialGradient id="radialGradient2251" cx="29.345" cy="17.064" r="9.162" fx="29.345" fy="17.064" gradientTransform="matrix(0.787998,0,0,0.787998,6.221198,3.617627)" gradientUnits="userSpaceOnUse" xlink:href="#linearGradient3800"/><linearGradient id="linearGradient2253" x1="20.662" x2="22.627" y1="35.818" y2="36.218" gradientTransform="matrix(0.983375,0.181588,-0.181588,0.983375,6.231716,-2.651466)" gradientUnits="userSpaceOnUse" xlink:href="#linearGradient4356"/><linearGradient id="linearGradient2255" x1="22.687" x2="21.408" y1="36.39" y2="35.74" gradientTransform="matrix(-0.977685,0.210075,0.210075,0.977685,55.1096,-3.945209)" gradientUnits="userSpaceOnUse" xlink:href="#linearGradient4356"/></defs><g id="layer2" display="inline" transform="translate(-5.0000039,-32.070112)"><g id="g2230" transform="matrix(0.39012793,0,0,0.39012793,-1.0891578,28.22979)"><path d="m 39.774755,19.008621 a 8.6620579,8.6620579 0 1 1 -17.324115,0 8.6620579,8.6620579 0 1 1 17.324115,0 z" style="marker:none" id="path4306" fill="url(#radialGradient2243)" fill-opacity="1" fill-rule="evenodd" stroke="none" stroke-width="1" color="#000" display="inline" overflow="visible" transform="matrix(1.77551,0,0,0.959183,-24.25322,18.77153)" visibility="visible"/><path id="path4308" fill="url(#radialGradient2245)" fill-opacity="1" fill-rule="evenodd" stroke="#204a87" stroke-dasharray="none" stroke-dashoffset="0" stroke-linecap="round" stroke-linejoin="round" stroke-miterlimit="4" stroke-opacity="1" stroke-width="1" d="m 25.986174,41.636039 10.606602,0 c 3.005204,0 5.980484,-1.101932 7.071067,-4.242641 1.035639,-2.982476 0.176777,-8.662058 -6.540737,-13.258252 l -12.551146,0 c -6.717514,4.24264 -7.556991,10.044831 -6.010407,13.435028 1.575595,3.45379 4.24264,4.065865 7.424621,4.065865 z" color="#000" display="inline" overflow="visible" visibility="visible" style="marker:none"/><path d="m 26.693281,25.726136 c 3.18198,2.828427 4.596194,13.081476 4.596194,13.081476 0,0 1.414213,-10.253048 3.889087,-13.258252 l -8.485281,0.176776 z" style="marker:none" id="path4310" fill="url(#linearGradient2247)" fill-opacity="1" fill-rule="evenodd" stroke="none" stroke-width="1" color="#000" display="inline" overflow="visible" visibility="visible"/><path d="m 28.972721,26.786797 c 0,0 -2.151323,1.660335 -1.965991,3.660533 -2.041226,-1.800794 -2.099873,-5.251524 -2.099873,-5.251524 l 4.065864,1.590991 z" style="marker:none" id="path4312" fill="#729fcf" fill-opacity="1" fill-rule="evenodd" stroke="none" stroke-width="1" color="#000" display="inline" overflow="visible" visibility="visible"/><path id="path4314" fill="none" stroke="#fff" stroke-dasharray="none" stroke-dashoffset="0" stroke-linecap="round" stroke-linejoin="round" stroke-miterlimit="4" stroke-opacity="1" stroke-width="1" d="m 25.914862,40.593933 10.493447,-0.0221 c 2.639723,0 5.253161,-0.967919 6.211112,-3.726667 0.909689,-2.61976 -0.09472,-7.608614 -5.995279,-11.645837 L 25.099417,24.956264 c -5.900557,3.726667 -7.04262,8.823219 -5.662029,12.044182 1.380592,3.220963 3.395211,3.57139 6.477474,3.593487 z" color="#000" display="inline" opacity=".215" overflow="visible" visibility="visible" style="marker:none"/><path d="m 33.410795,26.786797 c 0,0 2.151323,1.660335 1.965991,3.660533 2.041226,-1.800794 2.099873,-5.251524 2.099873,-5.251524 l -4.065864,1.590991 z" style="marker:none" id="path4316" fill="#729fcf" fill-opacity="1" fill-rule="evenodd" stroke="none" stroke-width="1" color="#000" display="inline" overflow="visible" visibility="visible"/><path d="m 39.774755,19.008621 a 8.6620579,8.6620579 0 1 1 -17.324115,0 8.6620579,8.6620579 0 1 1 17.324115,0 z" style="marker:none" id="path4318" fill="url(#radialGradient2249)" fill-opacity="1" fill-rule="evenodd" stroke="none" stroke-width="1" color="#000" display="inline" overflow="visible" transform="translate(-0.125,3.5)" visibility="visible"/><path id="path4320" fill="url(#radialGradient2251)" fill-opacity="1" fill-rule="evenodd" stroke="#c17d11" stroke-dasharray="none" stroke-dashoffset="0" stroke-linecap="round" stroke-linejoin="round" stroke-miterlimit="4" stroke-opacity="1" stroke-width="1" d="m 39.774755,19.008621 a 8.6620579,8.6620579 0 1 1 -17.324115,0 8.6620579,8.6620579 0 1 1 17.324115,0 z" color="#000" display="inline" overflow="visible" visibility="visible" style="marker:none"/><path id="path4322" fill="none" stroke="#fff" stroke-dasharray="none" stroke-dashoffset="0" stroke-linecap="round" stroke-linejoin="round" stroke-miterlimit="4" stroke-opacity="1" stroke-width="1.14" d="m 39.774755,19.008621 a 8.6620579,8.6620579 0 1 1 -17.324115,0 8.6620579,8.6620579 0 1 1 17.324115,0 z" color="#000" display="inline" opacity=".196" overflow="visible" transform="matrix(0.877095,0,0,0.877095,3.823927,2.336267)" visibility="visible" style="marker:none"/><path d="m 21.85179,40.775197 c -1.247607,-0.544969 -1.805994,-1.858277 -1.805994,-1.858277 0.841281,-4.069136 3.719925,-7.046216 3.719925,-7.046216 0,0 -2.279321,6.411514 -1.913931,8.904493 z" style="marker:none" id="path4354" fill="url(#linearGradient2253)" fill-opacity="1" fill-rule="evenodd" stroke="none" stroke-width="1" color="#000" display="inline" opacity=".228" overflow="visible" visibility="visible"/><path d="m 40.757497,39.916846 c 1.231251,-0.580978 1.80438,-2.002321 1.80438,-2.002321 -0.95912,-4.042983 -3.976149,-6.842821 -3.976149,-6.842821 0,0 2.464593,6.342602 2.171769,8.845142 z" style="marker:none" id="path4364" fill="url(#linearGradient2255)" fill-opacity="1" fill-rule="evenodd" stroke="none" stroke-width="1" color="#000" display="inline" opacity=".228" overflow="visible" visibility="visible"/></g></g></svg>