<svg xmlns="http://www.w3.org/2000/svg" xmlns:xlink="http://www.w3.org/1999/xlink" id="Layer_1" width="21.059" height="21.06" x="0" y="0" enable-background="new 0 0 21.059 21.06" version="1.1" viewBox="0 0 21.059 21.06" xml:space="preserve"><path fill="#575757" d="M10.529,0C4.715,0,0,4.714,0,10.529s4.715,10.53,10.529,10.53c5.816,0,10.529-4.715,10.529-10.53	S16.346,0,10.529,0z M10.527,16.767c-0.861,0-1.498-0.688-1.498-1.516c0-0.862,0.637-1.534,1.498-1.534c0.828,0,1.5,0.672,1.5,1.534	C12.027,16.078,11.355,16.767,10.527,16.767z M12.664,10.255c-0.723,0.568-1,0.931-1,1.739v0.5H9.459v-0.603	c0-1.517,0.449-2.136,1.154-2.688c0.707-0.552,1.139-0.845,1.139-1.637c0-0.672-0.414-1.051-1.24-1.051	c-0.707,0-1.328,0.189-1.982,0.638L7.479,5.346c0.861-0.604,1.93-1.034,3.342-1.034c1.912,0,3.516,1.051,3.516,3.066	C14.336,8.808,13.543,9.566,12.664,10.255z"/></svg>